<svg width="21" height="13" viewBox="0 0 21 13" fill="none" xmlns="http://www.w3.org/2000/svg">
<path d="M20.3905 1.09391C20.5354 0.635078 20.389 0.29903 19.6996 0.30021L17.4158 0.304118C16.8348 0.305113 16.5698 0.596499 16.4246 0.91628C16.4246 0.91628 15.2687 3.59977 13.6267 5.34127C13.0966 5.8481 12.8543 6.00828 12.5648 6.00878C12.42 6.00902 12.2094 5.84962 12.2085 5.39103L12.2001 1.10793C12.1991 0.557627 12.0309 0.313334 11.5467 0.314163L7.95814 0.320304C7.59574 0.320924 7.37755 0.57574 7.37802 0.818347C7.37904 1.33907 8.20195 1.45797 8.28916 2.92531L8.29536 6.10879C8.29672 6.80604 8.16471 6.93348 7.87313 6.93398C7.09939 6.93531 5.21135 4.24717 4.08797 1.16817C3.86916 0.56991 3.64896 0.328665 3.06579 0.329663L0.783111 0.33357C0.130173 0.334687 0.00056842 0.625841 0.00119061 0.945373C0.00230824 1.51935 0.781576 4.3583 3.61933 8.10992C5.51128 10.6718 8.17052 12.0578 10.5907 12.0537C12.0413 12.0512 12.2198 11.7422 12.2188 11.2097L12.215 9.27078C12.2138 8.65341 12.352 8.52891 12.8113 8.52813C13.1487 8.52755 13.7301 8.68829 15.0873 9.92169C16.6376 11.3845 16.8951 12.0419 17.7646 12.0404L20.0473 12.0365C20.6992 12.0354 21.0246 11.7262 20.8359 11.117C20.6296 10.5108 19.8885 9.62944 18.9055 8.58673C18.3712 7.99197 17.5733 7.3523 17.33 7.0322C16.9908 6.61956 17.0883 6.43694 17.3281 6.06966C17.3292 6.07064 20.1035 2.35577 20.3905 1.09391Z" fill="white"/>
</svg>
