<svg width="51" height="51" viewBox="0 0 51 51" fill="none" xmlns="http://www.w3.org/2000/svg">
<path d="M25.4931 12.416C18.2528 12.416 12.4094 18.2595 12.4094 25.5C12.4094 32.7405 18.2528 38.584 25.4931 38.584C32.7335 38.584 38.5769 32.7405 38.5769 25.5C38.5769 18.2595 32.7335 12.416 25.4931 12.416ZM25.4931 34.0036C20.8108 34.0036 16.9897 30.1824 16.9897 25.5C16.9897 20.8176 20.8108 16.9964 25.4931 16.9964C30.1755 16.9964 33.9966 20.8176 33.9966 25.5C33.9966 30.1824 30.1755 34.0036 25.4931 34.0036ZM39.1127 8.83086C37.4222 8.83086 36.0571 10.196 36.0571 11.8866C36.0571 13.5771 37.4222 14.9422 39.1127 14.9422C40.8032 14.9422 42.1684 13.5834 42.1684 11.8866C42.1689 11.4851 42.0902 11.0876 41.9368 10.7166C41.7834 10.3456 41.5583 10.0086 41.2745 9.72473C40.9907 9.44088 40.6536 9.21582 40.2827 9.06244C39.9117 8.90905 39.5141 8.83036 39.1127 8.83086ZM50.9972 25.5C50.9972 21.9786 51.0291 18.4891 50.8313 14.9741C50.6335 10.8914 49.7022 7.26793 46.7167 4.28241C43.7249 1.29052 40.1079 0.365518 36.0252 0.167759C32.5039 -0.0299992 29.0145 0.00189749 25.4995 0.00189749C21.9782 0.00189749 18.4888 -0.0299992 14.9739 0.167759C10.8912 0.365518 7.2678 1.2969 4.28234 4.28241C1.29049 7.27431 0.365511 10.8914 0.167756 14.9741C-0.0299986 18.4955 0.00189745 21.985 0.00189745 25.5C0.00189745 29.015 -0.0299986 32.5109 0.167756 36.0259C0.365511 40.1086 1.29687 43.7321 4.28234 46.7176C7.27418 49.7095 10.8912 50.6345 14.9739 50.8322C18.4952 51.03 21.9846 50.9981 25.4995 50.9981C29.0208 50.9981 32.5103 51.03 36.0252 50.8322C40.1079 50.6345 43.7313 49.7031 46.7167 46.7176C49.7086 43.7257 50.6335 40.1086 50.8313 36.0259C51.0354 32.5109 50.9972 29.0214 50.9972 25.5ZM45.3835 40.5424C44.9178 41.7034 44.3564 42.571 43.457 43.4641C42.5575 44.3636 41.6963 44.925 40.5353 45.3907C37.1798 46.724 29.2122 46.4241 25.4931 46.4241C21.7741 46.4241 13.8001 46.724 10.4446 45.3971C9.28362 44.9314 8.41605 44.37 7.52296 43.4705C6.6235 42.571 6.06213 41.7098 5.59645 40.5488C4.26958 37.1869 4.5694 29.2191 4.5694 25.5C4.5694 21.7809 4.26958 13.8067 5.59645 10.4512C6.06213 9.29017 6.6235 8.42259 7.52296 7.52948C8.42243 6.63638 9.28362 6.06862 10.4446 5.60293C13.8001 4.27604 21.7741 4.57586 25.4931 4.57586C29.2122 4.57586 37.1862 4.27604 40.5417 5.60293C41.7027 6.06862 42.5702 6.63 43.4633 7.52948C44.3628 8.42897 44.9242 9.29017 45.3898 10.4512C46.7167 13.8067 46.4169 21.7809 46.4169 25.5C46.4169 29.2191 46.7167 37.1869 45.3835 40.5424Z" fill="white"/>
</svg>
