<svg width="59" height="35" viewBox="0 0 59 35" fill="none" xmlns="http://www.w3.org/2000/svg">
<path d="M57.5885 3.14643C57.9978 1.85055 57.5842 0.901452 55.6371 0.904784L49.1873 0.915822C47.5461 0.918631 46.7977 1.74159 46.3877 2.64474C46.3877 2.64474 43.1231 10.2237 38.4857 15.1422C36.9885 16.5736 36.3041 17.026 35.4865 17.0274C35.0777 17.0281 34.4827 16.5779 34.4802 15.2827L34.4566 3.18602C34.4536 1.6318 33.9787 0.941849 32.6111 0.94419L22.476 0.961535C21.4525 0.963287 20.8363 1.68296 20.8376 2.36815C20.8405 3.83881 23.1646 4.17464 23.4109 8.3188L23.4284 17.3098C23.4323 19.2791 23.0594 19.639 22.2359 19.6404C20.0507 19.6442 14.7183 12.0521 11.5456 3.35614C10.9276 1.66649 10.3057 0.98515 8.65866 0.987968L2.21173 0.999001C0.367646 1.00216 0.00160538 1.82446 0.00336262 2.72691C0.00651913 4.34797 2.20739 12.366 10.222 22.9616C15.5654 30.1971 23.0759 34.1116 29.911 34.0999C34.008 34.0929 34.5122 33.2202 34.5093 31.7162L34.4986 26.2402C34.4952 24.4966 34.8857 24.145 36.1827 24.1427C37.1356 24.1411 38.7777 24.5951 42.6109 28.0786C46.9894 32.2101 47.7166 34.0667 50.1724 34.0625L56.6193 34.0514C58.4605 34.0483 59.3793 33.1749 58.8466 31.4545C58.2638 29.7425 56.1708 27.2532 53.3945 24.3083C51.8854 22.6285 49.6319 20.8219 48.9449 19.9178C47.9867 18.7524 48.2622 18.2366 48.9396 17.1993C48.9425 17.2021 56.7778 6.71027 57.5885 3.14643Z" fill="white"/>
</svg>
