<svg width="319" height="86" viewBox="0 0 319 86" fill="none" xmlns="http://www.w3.org/2000/svg">
<path fill-rule="evenodd" clip-rule="evenodd" d="M-1 3.89996L12.3891 6.87768C25.7782 9.8554 52.1102 15.8108 78.8884 22.1917C105.667 28.1471 132.445 34.1026 158.777 29.4233C185.555 25.1694 212.333 9.8554 239.112 3.89996C265.444 -2.48088 292.222 0.496845 305.611 2.1984L319 3.89996V86H305.611C292.222 86 265.444 86 239.112 86C212.333 86 185.555 86 158.777 86C132.445 86 105.667 86 78.8884 86C52.1102 86 25.7782 86 12.3891 86H-1V3.89996Z" fill="#241E28"/>
</svg>
