<svg width="524" height="689" viewBox="0 0 524 689" fill="none" xmlns="http://www.w3.org/2000/svg">
<path fill-rule="evenodd" clip-rule="evenodd" d="M361.148 1.43399C430.311 -11.6532 479.804 68.0273 535.788 110.696C590.184 152.155 652.763 185.107 682.772 246.566C715.569 313.735 747.675 400.351 708.221 463.839C668.055 528.471 563.397 500.17 499.494 541.486C441.623 578.901 429.529 679.695 361.148 688.233C293.874 696.632 251.783 616.821 195.197 579.48C134.8 539.623 49.4816 527.839 18.79 462.307C-12.6299 395.22 -3.8632 306.726 39.2335 246.472C79.9425 189.556 173.042 211.183 228.722 168.8C286.748 124.631 289.495 14.9923 361.148 1.43399Z" fill="url(#paint0_linear)"/>
<defs>
<linearGradient id="paint0_linear" x1="539.5" y1="465.5" x2="74" y2="143.5" gradientUnits="userSpaceOnUse">
<stop stop-color="#EF8DFF"/>
<stop offset="1" stop-color="#BCF3FF" stop-opacity="0"/>
</linearGradient>
</defs>
</svg>
