<svg width="136" height="136" viewBox="0 0 136 136" fill="none" xmlns="http://www.w3.org/2000/svg">
<path d="M67.9817 33.1094C48.674 33.1094 33.0918 48.692 33.0918 68C33.0918 87.308 48.674 102.891 67.9817 102.891C87.2894 102.891 102.872 87.308 102.872 68C102.872 48.692 87.2894 33.1094 67.9817 33.1094ZM67.9817 90.6763C55.4955 90.6763 45.3058 80.4864 45.3058 68C45.3058 55.5136 55.4955 45.3237 67.9817 45.3237C80.4679 45.3237 90.6576 55.5136 90.6576 68C90.6576 80.4864 80.4679 90.6763 67.9817 90.6763ZM104.301 23.549C99.7926 23.549 96.1522 27.1894 96.1522 31.6975C96.1522 36.2055 99.7926 39.846 104.301 39.846C108.809 39.846 112.449 36.2225 112.449 31.6975C112.45 30.627 112.24 29.5668 111.831 28.5776C111.422 27.5884 110.822 26.6895 110.065 25.9326C109.308 25.1757 108.41 24.5755 107.42 24.1665C106.431 23.7575 105.371 23.5476 104.301 23.549ZM135.992 68C135.992 58.6097 136.077 49.3044 135.55 39.931C135.023 29.0437 132.539 19.3811 124.578 11.4198C116.6 3.44138 106.954 0.974715 96.0672 0.447359C86.677 -0.0799977 77.3719 0.00505997 67.9987 0.00505997C58.6086 0.00505997 49.3035 -0.0799977 39.9303 0.447359C29.0431 0.974715 19.3808 3.45839 11.4196 11.4198C3.44132 19.3982 0.974697 29.0437 0.44735 39.931C-0.0799963 49.3214 0.00505988 58.6267 0.00505988 68C0.00505988 77.3733 -0.0799963 86.6956 0.44735 96.069C0.974697 106.956 3.45833 116.619 11.4196 124.58C19.3978 132.559 29.0431 135.025 39.9303 135.553C49.3205 136.08 58.6256 135.995 67.9987 135.995C77.3889 135.995 86.694 136.08 96.0672 135.553C106.954 135.025 116.617 132.542 124.578 124.58C132.556 116.602 135.023 106.956 135.55 96.069C136.094 86.6956 135.992 77.3903 135.992 68ZM121.023 108.113C119.781 111.209 118.284 113.523 115.885 115.904C113.487 118.303 111.19 119.8 108.094 121.042C99.1462 124.597 77.8992 123.798 67.9817 123.798C58.0642 123.798 36.8002 124.597 27.8524 121.059C24.7563 119.817 22.4428 118.32 20.0612 115.921C17.6627 113.523 16.1657 111.226 14.9239 108.13C11.3855 99.1651 12.1851 77.9177 12.1851 68C12.1851 58.0823 11.3855 36.8179 14.9239 27.8699C16.1657 24.7738 17.6627 22.4602 20.0612 20.0786C22.4598 17.697 24.7563 16.183 27.8524 14.9412C36.8002 11.4028 58.0642 12.2023 67.9817 12.2023C77.8992 12.2023 99.1632 11.4028 108.111 14.9412C111.207 16.183 113.521 17.68 115.902 20.0786C118.301 22.4772 119.798 24.7738 121.04 27.8699C124.578 36.8179 123.778 58.0823 123.778 68C123.778 77.9177 124.578 99.1651 121.023 108.113Z" fill="white"/>
</svg>
