<svg width="159" height="89" viewBox="0 0 159 89" fill="none" xmlns="http://www.w3.org/2000/svg">
<path d="M154.364 6.01798C155.467 2.54607 154.363 0 149.143 0L131.854 0C127.454 0 125.444 2.20261 124.341 4.62175C124.341 4.62175 115.555 24.9231 103.101 38.0865C99.0814 41.9168 97.2447 43.1264 95.0529 43.1264C93.957 43.1264 92.3641 41.9168 92.3633 38.4449L92.3557 6.01798C92.3547 1.85169 91.0849 0 87.4188 0L60.2502 0C57.5066 0 55.8513 1.92635 55.8518 3.76311C55.8527 7.70541 62.0814 8.61632 62.7226 19.7264L62.7283 43.8282C62.7295 49.107 61.7285 50.0702 59.5209 50.0702C53.663 50.0702 39.4038 29.6942 30.9387 6.36891C29.2898 1.83676 27.6259 0.0074695 23.2108 0.0074695L5.92884 0.0074695C0.985514 0.0074695 0.000521162 2.21008 0.00109162 4.62922C0.00211634 8.97471 5.86507 30.4782 27.3007 58.918C41.5913 78.3383 61.7061 88.866 80.0287 88.866C91.0112 88.866 92.3668 86.529 92.3658 82.4971L92.3623 67.818C92.3612 63.144 93.4096 62.2032 96.8865 62.2032C99.4409 62.2032 103.841 63.4277 114.1 72.7832C125.818 83.8784 127.759 88.8586 134.342 88.8586H151.624C156.56 88.8586 159.027 86.5216 157.607 81.9073C156.052 77.3154 150.453 70.6329 143.024 62.7259C138.987 58.2161 132.954 53.3629 131.117 50.9363C128.553 47.8079 129.294 46.4266 131.115 43.649C131.123 43.6565 152.175 15.5676 154.364 6.01798Z" fill="white"/>
</svg>
